{"scene":0,"asset":{"generator":"ImageToStl.com","version":"2.0"},"scenes":[{"name":"Scene","nodes":[0]}],"nodes":[{"name":"Node0","children":[1]},{"name":"Node1","mesh":0}],"materials":[{"name":"Default_OBJ","pbrMetallicRoughness":{"baseColorFactor":[0.8,0.8,0.8,1.0],"metallicFactor":0.5,"roughnessFactor":0.775,"baseColorTexture":{"index":0}},"emissiveFactor":[0.0,0.0,0.0],"doubleSided":true}],"images":[{"bufferView":0,"name":"","mimeType":"image/png"}],"textures":[{"sampler":0,"source":0}],"samplers":[{"magFilter":9729,"minFilter":9987}],"meshes":[{"name":"Mesh0","primitives":[{"indices":3,"material":0,"attributes":{"POSITION":0,"NORMAL":1,"TEXCOORD_0":2}}]}],"accessors":[{"bufferView":1,"componentType":5126,"count":6352,"type":"VEC3","min":[-0.737205,-0.002302,-0.283801],"max":[0.737205,1.91693,0.172735]},{"bufferView":2,"componentType":5126,"count":6352,"type":"VEC3"},{"bufferView":3,"componentType":5126,"count":6352,"type":"VEC2"},{"bufferView":4,"componentType":5123,"count":88569,"type":"SCALAR"}],"bufferViews":[{"buffer":0,"byteLength":1026308,"byteOffset":0},{"target":34962,"buffer":0,"byteLength":76224,"byteOffset":1026308},{"target":34962,"buffer":0,"byteLength":76224,"byteOffset":1102532},{"target":34962,"buffer":0,"byteLength":50816,"byteOffset":1178756},{"target":34963,"buffer":0,"byteLength":177138,"byteOffset":1229572}],"buffers":[{"byteLength":1406712,"uri":"data:application/octet-stream;base64,"}]}